<svg version="1.1" id="Layer_1" xmlns="http://www.w3.org/2000/svg" xmlns:xlink="http://www.w3.org/1999/xlink" x="0px" y="0px" viewBox="-181.3 -28 591.5 168.1" style="enable-background:new -181.3 -28 591.5 168.1;" xml:space="preserve">
 <style type="text/css">
  .st0{fill:#FFFFFF;}
	.st1{fill:#D7D7D9;}
 </style>
 <g transform="translate(-34 -36)">
  <path class="st0" d="M19,167l-31.5-31.5c-2.1-2.1-5.3-2.1-7.4,0L-51.4,167c-2.1,2.1-2.1,5.3,0,7.4c1.1,1.1,2.5,1.8,3.9,1.8h63.4
		c2.8,0,5.3-2.1,5.3-4.9C20.7,169.5,20,168.1,19,167z">
  </path>
  <path class="st1" d="M20,53.3l-9.8-29.4c-0.3-1.4-1.1-2.5-2.1-3.5l-154.4,154.4c1.1,0.7,2.1,1.4,3.2,1.1h43.8
		c2.5,0,4.9-1.1,6.7-2.8L17.9,62.4C20.4,60.3,21.4,56.4,20,53.3z">
  </path>
  <path class="st0" d="M4.6,18.3l-29.4-9.8c-3.2-1.1-7-0.3-9.5,2.1l-110.3,110.3c-1.8,1.8-2.8,4.2-2.8,6.7v43.8
		c0,1.1,0.4,2.5,1.1,3.2L8.1,20C7.1,19.3,6,18.6,4.6,18.3z">
  </path>
  <path class="st0" d="M426.4,89.3c0,1.8-0.4,3.5-1.1,4.9c-0.7,1.1-1.8,2.1-3.1,2.8s-2.8,1.1-4.2,1.1c-1.8,0-3.2,0.3-4.9,0.3h-5.6
		V80.9h6.3c1.4,0,3.2,0,4.6,0.3c1.4,0,2.8,0.3,4.2,1.1s2.5,1.4,3.2,2.5C426.1,86.2,426.4,87.9,426.4,89.3z M428.5,133.8h15.8
		l-8.8-12.6c-1.4-2.1-2.8-4.2-4.6-6.3c-1.4-2.1-2.8-3.9-3.9-4.9c-0.7-1.1-1.8-2.1-2.8-3.2c4.2-0.3,8.1-2.5,11.2-5.3
		c3.1-3.5,4.6-7.7,4.2-12.3c0-5.3-2.5-10.5-6.7-14c-2.1-1.8-4.6-2.8-7.4-3.5c-3.5-0.7-7-1.1-10.5-1.1h-21.4v63h13v-26.3
		c1.4,0,2.5,0.3,3.5,1.1s1.8,1.4,2.5,2.1c1.1,1.4,2.1,2.8,3.2,4.2c1.4,1.8,3.2,4.9,5.6,8.4L428.5,133.8z M319,133.8h40.6v-10.9
		h-27.3v-16.8h20.7V95.6h-20.7V81.3h24.5l1.8-10.5H319V133.8z M268.2,133.8l24.5-63h-13.7l-12.6,32.6c-0.7,1.4-1.1,3.2-1.4,4.6
		c-0.4,1.8-1.1,3.2-1.4,4.9c-0.4,1.4-0.7,2.8-1.1,3.9l-0.4,1.4l-0.4-1.4c-0.4-1.1-0.7-2.5-1.1-3.9c-0.4-1.4-0.7-3.2-1.4-4.9
		c-0.4-1.8-1.1-3.2-1.4-4.6l-11.6-32.6h-14.4l24.2,63H268.2z M166,133.8h40.6v-10.9h-27.3v-16.8H200V95.6h-20.7V81.3h24.5l1.8-10.5
		H166L166,133.8z M130.6,133.8l2.5-10.9h-25.6V70.8H94.2v63H130.6z">
  </path>
 </g>
</svg>